M48
METRIC,TZ
T1C0.800
T2C1.000
T3C1.016
T4C3.000
%
G90
G05
T1
X132080Y-77470
X132080Y-85090
T2
X114300Y-78740
X114300Y-81280
X114300Y-90170
X116840Y-90170
X119380Y-90170
X121920Y-90170
X124460Y-90170
X127000Y-90170
X129540Y-90170
X132080Y-90170
X134620Y-90170
X138430Y-80010
X140970Y-80010
X143510Y-80010
T3
X119170Y-69110
X119170Y-71650
X121710Y-69110
X121710Y-71650
X124250Y-69110
X124250Y-71650
X126790Y-69110
X126790Y-71650
X129330Y-69110
X129330Y-71650
X131870Y-69110
X131870Y-71650
X134410Y-69110
X134410Y-71650
X136950Y-69110
X136950Y-71650
X139490Y-69110
X139490Y-71650
X142030Y-69110
X142030Y-71650
X144570Y-69110
X144570Y-71650
X147110Y-69110
X147110Y-71650
X149650Y-69110
X149650Y-71650
X152190Y-69110
X152190Y-71650
X154730Y-69110
X154730Y-71650
X157270Y-69110
X157270Y-71650
X159810Y-69110
X159810Y-71650
X162350Y-69110
X162350Y-71650
X164890Y-69110
X164890Y-71650
X167430Y-69110
X167430Y-71650
T4
X134620Y-119380
T0
M30
