G04 #@! TF.FileFunction,Soldermask,Bot*
%FSLAX46Y46*%
G04 Gerber Fmt 4.6, Leading zero omitted, Abs format (unit mm)*
G04 Created by KiCad (PCBNEW 4.0.5-e0-6337~49~ubuntu16.04.1) date Sun Mar  5 09:11:21 2017*
%MOMM*%
%LPD*%
G01*
G04 APERTURE LIST*
%ADD10C,0.100000*%
%ADD11R,2.127200X2.127200*%
%ADD12O,2.127200X2.127200*%
%ADD13C,6.400000*%
%ADD14C,2.100000*%
%ADD15C,2.000000*%
%ADD16O,2.000000X2.000000*%
%ADD17C,1.924000*%
%ADD18C,4.400000*%
G04 APERTURE END LIST*
D10*
D11*
X119170000Y-71650000D03*
D12*
X119170000Y-69110000D03*
X121710000Y-71650000D03*
X121710000Y-69110000D03*
X124250000Y-71650000D03*
X124250000Y-69110000D03*
X126790000Y-71650000D03*
X126790000Y-69110000D03*
X129330000Y-71650000D03*
X129330000Y-69110000D03*
X131870000Y-71650000D03*
X131870000Y-69110000D03*
X134410000Y-71650000D03*
X134410000Y-69110000D03*
X136950000Y-71650000D03*
X136950000Y-69110000D03*
X139490000Y-71650000D03*
X139490000Y-69110000D03*
X142030000Y-71650000D03*
X142030000Y-69110000D03*
X144570000Y-71650000D03*
X144570000Y-69110000D03*
X147110000Y-71650000D03*
X147110000Y-69110000D03*
X149650000Y-71650000D03*
X149650000Y-69110000D03*
X152190000Y-71650000D03*
X152190000Y-69110000D03*
X154730000Y-71650000D03*
X154730000Y-69110000D03*
X157270000Y-71650000D03*
X157270000Y-69110000D03*
X159810000Y-71650000D03*
X159810000Y-69110000D03*
X162350000Y-71650000D03*
X162350000Y-69110000D03*
X164890000Y-71650000D03*
X164890000Y-69110000D03*
X167430000Y-71650000D03*
X167430000Y-69110000D03*
D13*
X114300000Y-70380000D03*
X172300000Y-70380000D03*
X114300000Y-119380000D03*
X172300000Y-119380000D03*
D14*
X114300000Y-81280000D03*
X114300000Y-78740000D03*
X138430000Y-80010000D03*
X140970000Y-80010000D03*
X143510000Y-80010000D03*
D15*
X132080000Y-85090000D03*
D16*
X132080000Y-77470000D03*
D17*
X124460000Y-90170000D03*
X127000000Y-90170000D03*
X129540000Y-90170000D03*
X132080000Y-90170000D03*
X121920000Y-90170000D03*
X119380000Y-90170000D03*
X116840000Y-90170000D03*
X114300000Y-90170000D03*
X134620000Y-90170000D03*
D18*
X134620000Y-119380000D03*
D17*
X152400000Y-107950000D03*
X149860000Y-107950000D03*
X147320000Y-107950000D03*
X154940000Y-107950000D03*
X157480000Y-107950000D03*
X160020000Y-107950000D03*
X144780000Y-107950000D03*
X142240000Y-107950000D03*
M02*
