%TF.GenerationSoftware,KiCad,Pcbnew,5.1.8-db9833491~88~ubuntu20.04.1*%
%TF.CreationDate,2020-12-14T14:43:52+01:00*%
%TF.ProjectId,carGpsHat,63617247-7073-4486-9174-2e6b69636164,rev?*%
%TF.SameCoordinates,Original*%
%TF.FileFunction,Legend,Top*%
%TF.FilePolarity,Positive*%
%FSLAX46Y46*%
G04 Gerber Fmt 4.6, Leading zero omitted, Abs format (unit mm)*
G04 Created by KiCad (PCBNEW 5.1.8-db9833491~88~ubuntu20.04.1) date 2020-12-14 14:43:52*
%MOMM*%
%LPD*%
G01*
G04 APERTURE LIST*
%ADD10C,0.120000*%
%ADD11C,0.150000*%
G04 APERTURE END LIST*
D10*
%TO.C,Si470x1*%
X121920000Y-88600000D02*
X135890000Y-88600000D01*
X121920000Y-114600000D02*
X121920000Y-88600000D01*
X135890000Y-114600000D02*
X121920000Y-114600000D01*
X135890000Y-88600000D02*
X135890000Y-114600000D01*
%TO.C,P3*%
X120710000Y-114590000D02*
X120710000Y-93689000D01*
X115410000Y-114590000D02*
X115410000Y-93689000D01*
X114950000Y-114590000D02*
X114950000Y-93689000D01*
X121270000Y-114590000D02*
X121270000Y-93689000D01*
X114950000Y-114590000D02*
X121270000Y-114590000D01*
X114950000Y-93689000D02*
X121270000Y-93689000D01*
X120770000Y-114830000D02*
X121510000Y-114830000D01*
X121510000Y-114830000D02*
X121510000Y-114330000D01*
%TO.C,U1*%
X163880000Y-112250000D02*
X138380000Y-112250000D01*
X163880000Y-78250000D02*
X138380000Y-78250000D01*
X138380000Y-78250000D02*
X138380000Y-112250000D01*
X163880000Y-112250000D02*
X163880000Y-78250000D01*
D11*
%TO.C,P2*%
X117620000Y-73200000D02*
X119170000Y-73200000D01*
X120440000Y-70380000D02*
X120440000Y-72920000D01*
X117900000Y-70380000D02*
X120440000Y-70380000D01*
X117620000Y-71650000D02*
X117620000Y-73200000D01*
X117900000Y-67840000D02*
X117900000Y-70380000D01*
X168700000Y-67840000D02*
X168700000Y-72920000D01*
X120440000Y-72920000D02*
X168700000Y-72920000D01*
X168700000Y-67840000D02*
X117900000Y-67840000D01*
X175800000Y-122880000D02*
X110800000Y-122880000D01*
X175800000Y-66880000D02*
X175800000Y-122880000D01*
X110800000Y-66880000D02*
X175800000Y-66880000D01*
X110800000Y-122880000D02*
X110800000Y-66880000D01*
%TO.C,P1*%
X119380000Y-90170000D02*
X114300000Y-90170000D01*
X119380000Y-82550000D02*
X119380000Y-90170000D01*
X114300000Y-82550000D02*
X119380000Y-82550000D01*
X114300000Y-90170000D02*
X114300000Y-82550000D01*
X118872000Y-83566000D02*
X119380000Y-83566000D01*
X118872000Y-89154000D02*
X118872000Y-83566000D01*
X119380000Y-89154000D02*
X118872000Y-89154000D01*
D10*
%TO.C,R1*%
X128310000Y-76800000D02*
X127980000Y-76800000D01*
X128310000Y-83220000D02*
X128310000Y-76800000D01*
X127980000Y-83220000D02*
X128310000Y-83220000D01*
X125690000Y-76800000D02*
X126020000Y-76800000D01*
X125690000Y-83220000D02*
X125690000Y-76800000D01*
X126020000Y-83220000D02*
X125690000Y-83220000D01*
%TO.C,U2*%
X165240000Y-112500000D02*
X165240000Y-78000000D01*
X165240000Y-78000000D02*
X182740000Y-78000000D01*
X182740000Y-78000000D02*
X182740000Y-112500000D01*
X182740000Y-112500000D02*
X165240000Y-112500000D01*
%TO.C,Si470x1*%
D11*
X129944761Y-104433333D02*
X129992380Y-104290476D01*
X129992380Y-104052380D01*
X129944761Y-103957142D01*
X129897142Y-103909523D01*
X129801904Y-103861904D01*
X129706666Y-103861904D01*
X129611428Y-103909523D01*
X129563809Y-103957142D01*
X129516190Y-104052380D01*
X129468571Y-104242857D01*
X129420952Y-104338095D01*
X129373333Y-104385714D01*
X129278095Y-104433333D01*
X129182857Y-104433333D01*
X129087619Y-104385714D01*
X129040000Y-104338095D01*
X128992380Y-104242857D01*
X128992380Y-104004761D01*
X129040000Y-103861904D01*
X129992380Y-103433333D02*
X129325714Y-103433333D01*
X128992380Y-103433333D02*
X129040000Y-103480952D01*
X129087619Y-103433333D01*
X129040000Y-103385714D01*
X128992380Y-103433333D01*
X129087619Y-103433333D01*
X129325714Y-102528571D02*
X129992380Y-102528571D01*
X128944761Y-102766666D02*
X129659047Y-103004761D01*
X129659047Y-102385714D01*
X128992380Y-102100000D02*
X128992380Y-101433333D01*
X129992380Y-101861904D01*
X128992380Y-100861904D02*
X128992380Y-100766666D01*
X129040000Y-100671428D01*
X129087619Y-100623809D01*
X129182857Y-100576190D01*
X129373333Y-100528571D01*
X129611428Y-100528571D01*
X129801904Y-100576190D01*
X129897142Y-100623809D01*
X129944761Y-100671428D01*
X129992380Y-100766666D01*
X129992380Y-100861904D01*
X129944761Y-100957142D01*
X129897142Y-101004761D01*
X129801904Y-101052380D01*
X129611428Y-101100000D01*
X129373333Y-101100000D01*
X129182857Y-101052380D01*
X129087619Y-101004761D01*
X129040000Y-100957142D01*
X128992380Y-100861904D01*
X129992380Y-100195238D02*
X129325714Y-99671428D01*
X129325714Y-100195238D02*
X129992380Y-99671428D01*
X129992380Y-98766666D02*
X129992380Y-99338095D01*
X129992380Y-99052380D02*
X128992380Y-99052380D01*
X129135238Y-99147619D01*
X129230476Y-99242857D01*
X129278095Y-99338095D01*
%TO.C,P3*%
X114402380Y-104878095D02*
X113402380Y-104878095D01*
X113402380Y-104497142D01*
X113450000Y-104401904D01*
X113497619Y-104354285D01*
X113592857Y-104306666D01*
X113735714Y-104306666D01*
X113830952Y-104354285D01*
X113878571Y-104401904D01*
X113926190Y-104497142D01*
X113926190Y-104878095D01*
X113402380Y-103973333D02*
X113402380Y-103354285D01*
X113783333Y-103687619D01*
X113783333Y-103544761D01*
X113830952Y-103449523D01*
X113878571Y-103401904D01*
X113973809Y-103354285D01*
X114211904Y-103354285D01*
X114307142Y-103401904D01*
X114354761Y-103449523D01*
X114402380Y-103544761D01*
X114402380Y-103830476D01*
X114354761Y-103925714D01*
X114307142Y-103973333D01*
%TO.C,U1*%
X149312380Y-96011904D02*
X150121904Y-96011904D01*
X150217142Y-95964285D01*
X150264761Y-95916666D01*
X150312380Y-95821428D01*
X150312380Y-95630952D01*
X150264761Y-95535714D01*
X150217142Y-95488095D01*
X150121904Y-95440476D01*
X149312380Y-95440476D01*
X150312380Y-94440476D02*
X150312380Y-95011904D01*
X150312380Y-94726190D02*
X149312380Y-94726190D01*
X149455238Y-94821428D01*
X149550476Y-94916666D01*
X149598095Y-95011904D01*
%TO.C,P2*%
X119622380Y-75309095D02*
X118622380Y-75309095D01*
X118622380Y-74928142D01*
X118670000Y-74832904D01*
X118717619Y-74785285D01*
X118812857Y-74737666D01*
X118955714Y-74737666D01*
X119050952Y-74785285D01*
X119098571Y-74832904D01*
X119146190Y-74928142D01*
X119146190Y-75309095D01*
X118717619Y-74356714D02*
X118670000Y-74309095D01*
X118622380Y-74213857D01*
X118622380Y-73975761D01*
X118670000Y-73880523D01*
X118717619Y-73832904D01*
X118812857Y-73785285D01*
X118908095Y-73785285D01*
X119050952Y-73832904D01*
X119622380Y-74404333D01*
X119622380Y-73785285D01*
X150035714Y-120632380D02*
X150035714Y-121346666D01*
X149988095Y-121489523D01*
X149892857Y-121584761D01*
X149750000Y-121632380D01*
X149654761Y-121632380D01*
X150654761Y-121632380D02*
X150559523Y-121584761D01*
X150511904Y-121537142D01*
X150464285Y-121441904D01*
X150464285Y-121156190D01*
X150511904Y-121060952D01*
X150559523Y-121013333D01*
X150654761Y-120965714D01*
X150797619Y-120965714D01*
X150892857Y-121013333D01*
X150940476Y-121060952D01*
X150988095Y-121156190D01*
X150988095Y-121441904D01*
X150940476Y-121537142D01*
X150892857Y-121584761D01*
X150797619Y-121632380D01*
X150654761Y-121632380D01*
X151845238Y-120965714D02*
X151845238Y-121632380D01*
X151416666Y-120965714D02*
X151416666Y-121489523D01*
X151464285Y-121584761D01*
X151559523Y-121632380D01*
X151702380Y-121632380D01*
X151797619Y-121584761D01*
X151845238Y-121537142D01*
X152321428Y-121632380D02*
X152321428Y-120632380D01*
X152416666Y-121251428D02*
X152702380Y-121632380D01*
X152702380Y-120965714D02*
X152321428Y-121346666D01*
X153511904Y-121584761D02*
X153416666Y-121632380D01*
X153226190Y-121632380D01*
X153130952Y-121584761D01*
X153083333Y-121489523D01*
X153083333Y-121108571D01*
X153130952Y-121013333D01*
X153226190Y-120965714D01*
X153416666Y-120965714D01*
X153511904Y-121013333D01*
X153559523Y-121108571D01*
X153559523Y-121203809D01*
X153083333Y-121299047D01*
X154750000Y-121632380D02*
X154750000Y-120632380D01*
X154750000Y-121108571D02*
X155321428Y-121108571D01*
X155321428Y-121632380D02*
X155321428Y-120632380D01*
X155797619Y-121632380D02*
X155797619Y-120965714D01*
X155797619Y-120632380D02*
X155750000Y-120680000D01*
X155797619Y-120727619D01*
X155845238Y-120680000D01*
X155797619Y-120632380D01*
X155797619Y-120727619D01*
X156273809Y-120965714D02*
X156273809Y-121822857D01*
X156226190Y-121918095D01*
X156130952Y-121965714D01*
X156083333Y-121965714D01*
X156273809Y-120632380D02*
X156226190Y-120680000D01*
X156273809Y-120727619D01*
X156321428Y-120680000D01*
X156273809Y-120632380D01*
X156273809Y-120727619D01*
X156892857Y-121632380D02*
X156797619Y-121584761D01*
X156750000Y-121489523D01*
X156750000Y-120632380D01*
X157273809Y-121632380D02*
X157273809Y-120632380D01*
X157369047Y-121251428D02*
X157654761Y-121632380D01*
X157654761Y-120965714D02*
X157273809Y-121346666D01*
X158464285Y-121584761D02*
X158369047Y-121632380D01*
X158178571Y-121632380D01*
X158083333Y-121584761D01*
X158035714Y-121489523D01*
X158035714Y-121108571D01*
X158083333Y-121013333D01*
X158178571Y-120965714D01*
X158369047Y-120965714D01*
X158464285Y-121013333D01*
X158511904Y-121108571D01*
X158511904Y-121203809D01*
X158035714Y-121299047D01*
X158940476Y-121632380D02*
X158940476Y-120965714D01*
X158940476Y-121060952D02*
X158988095Y-121013333D01*
X159083333Y-120965714D01*
X159226190Y-120965714D01*
X159321428Y-121013333D01*
X159369047Y-121108571D01*
X159369047Y-121632380D01*
X159369047Y-121108571D02*
X159416666Y-121013333D01*
X159511904Y-120965714D01*
X159654761Y-120965714D01*
X159750000Y-121013333D01*
X159797619Y-121108571D01*
X159797619Y-121632380D01*
X160702380Y-121632380D02*
X160702380Y-121108571D01*
X160654761Y-121013333D01*
X160559523Y-120965714D01*
X160369047Y-120965714D01*
X160273809Y-121013333D01*
X160702380Y-121584761D02*
X160607142Y-121632380D01*
X160369047Y-121632380D01*
X160273809Y-121584761D01*
X160226190Y-121489523D01*
X160226190Y-121394285D01*
X160273809Y-121299047D01*
X160369047Y-121251428D01*
X160607142Y-121251428D01*
X160702380Y-121203809D01*
X162750000Y-120870476D02*
X162654761Y-120822857D01*
X162464285Y-120822857D01*
X162369047Y-120870476D01*
X162273809Y-120965714D01*
X162226190Y-121060952D01*
X162226190Y-121251428D01*
X162273809Y-121346666D01*
X162369047Y-121441904D01*
X162464285Y-121489523D01*
X162654761Y-121489523D01*
X162750000Y-121441904D01*
X162559523Y-120489523D02*
X162321428Y-120537142D01*
X162083333Y-120680000D01*
X161940476Y-120918095D01*
X161892857Y-121156190D01*
X161940476Y-121394285D01*
X162083333Y-121632380D01*
X162321428Y-121775238D01*
X162559523Y-121822857D01*
X162797619Y-121775238D01*
X163035714Y-121632380D01*
X163178571Y-121394285D01*
X163226190Y-121156190D01*
X163178571Y-120918095D01*
X163035714Y-120680000D01*
X162797619Y-120537142D01*
X162559523Y-120489523D01*
X164369047Y-120727619D02*
X164416666Y-120680000D01*
X164511904Y-120632380D01*
X164750000Y-120632380D01*
X164845238Y-120680000D01*
X164892857Y-120727619D01*
X164940476Y-120822857D01*
X164940476Y-120918095D01*
X164892857Y-121060952D01*
X164321428Y-121632380D01*
X164940476Y-121632380D01*
X165559523Y-120632380D02*
X165654761Y-120632380D01*
X165750000Y-120680000D01*
X165797619Y-120727619D01*
X165845238Y-120822857D01*
X165892857Y-121013333D01*
X165892857Y-121251428D01*
X165845238Y-121441904D01*
X165797619Y-121537142D01*
X165750000Y-121584761D01*
X165654761Y-121632380D01*
X165559523Y-121632380D01*
X165464285Y-121584761D01*
X165416666Y-121537142D01*
X165369047Y-121441904D01*
X165321428Y-121251428D01*
X165321428Y-121013333D01*
X165369047Y-120822857D01*
X165416666Y-120727619D01*
X165464285Y-120680000D01*
X165559523Y-120632380D01*
X166273809Y-120727619D02*
X166321428Y-120680000D01*
X166416666Y-120632380D01*
X166654761Y-120632380D01*
X166750000Y-120680000D01*
X166797619Y-120727619D01*
X166845238Y-120822857D01*
X166845238Y-120918095D01*
X166797619Y-121060952D01*
X166226190Y-121632380D01*
X166845238Y-121632380D01*
X167464285Y-120632380D02*
X167559523Y-120632380D01*
X167654761Y-120680000D01*
X167702380Y-120727619D01*
X167750000Y-120822857D01*
X167797619Y-121013333D01*
X167797619Y-121251428D01*
X167750000Y-121441904D01*
X167702380Y-121537142D01*
X167654761Y-121584761D01*
X167559523Y-121632380D01*
X167464285Y-121632380D01*
X167369047Y-121584761D01*
X167321428Y-121537142D01*
X167273809Y-121441904D01*
X167226190Y-121251428D01*
X167226190Y-121013333D01*
X167273809Y-120822857D01*
X167321428Y-120727619D01*
X167369047Y-120680000D01*
X167464285Y-120632380D01*
%TO.C,P1*%
X119062380Y-87098095D02*
X118062380Y-87098095D01*
X118062380Y-86717142D01*
X118110000Y-86621904D01*
X118157619Y-86574285D01*
X118252857Y-86526666D01*
X118395714Y-86526666D01*
X118490952Y-86574285D01*
X118538571Y-86621904D01*
X118586190Y-86717142D01*
X118586190Y-87098095D01*
X119062380Y-85574285D02*
X119062380Y-86145714D01*
X119062380Y-85860000D02*
X118062380Y-85860000D01*
X118205238Y-85955238D01*
X118300476Y-86050476D01*
X118348095Y-86145714D01*
%TO.C,R1*%
X125142380Y-80176666D02*
X124666190Y-80510000D01*
X125142380Y-80748095D02*
X124142380Y-80748095D01*
X124142380Y-80367142D01*
X124190000Y-80271904D01*
X124237619Y-80224285D01*
X124332857Y-80176666D01*
X124475714Y-80176666D01*
X124570952Y-80224285D01*
X124618571Y-80271904D01*
X124666190Y-80367142D01*
X124666190Y-80748095D01*
X125142380Y-79224285D02*
X125142380Y-79795714D01*
X125142380Y-79510000D02*
X124142380Y-79510000D01*
X124285238Y-79605238D01*
X124380476Y-79700476D01*
X124428095Y-79795714D01*
%TO.C,U2*%
X173942380Y-96011904D02*
X174751904Y-96011904D01*
X174847142Y-95964285D01*
X174894761Y-95916666D01*
X174942380Y-95821428D01*
X174942380Y-95630952D01*
X174894761Y-95535714D01*
X174847142Y-95488095D01*
X174751904Y-95440476D01*
X173942380Y-95440476D01*
X174037619Y-95011904D02*
X173990000Y-94964285D01*
X173942380Y-94869047D01*
X173942380Y-94630952D01*
X173990000Y-94535714D01*
X174037619Y-94488095D01*
X174132857Y-94440476D01*
X174228095Y-94440476D01*
X174370952Y-94488095D01*
X174942380Y-95059523D01*
X174942380Y-94440476D01*
%TD*%
M02*
