M48
; DRILL file {KiCad 5.1.8-db9833491~88~ubuntu20.04.1} date Mon Dec 14 14:43:57 2020
; FORMAT={-:-/ absolute / inch / decimal}
; #@! TF.CreationDate,2020-12-14T14:43:57+01:00
; #@! TF.GenerationSoftware,Kicad,Pcbnew,5.1.8-db9833491~88~ubuntu20.04.1
; #@! TF.FileFunction,Plated,1,2,PTH
FMAT,2
INCH
T1C0.0315
T2C0.0394
T3C0.0400
T4C0.0433
T5C0.1083
%
G90
G05
T1
X5.0Y-3.0
X5.0Y-3.3
T2
X6.5843Y-3.5
X6.5843Y-3.6
X6.5843Y-3.7
X6.5843Y-3.8
X4.85Y-4.45
X5.3Y-3.55
X5.3Y-3.65
X5.3Y-3.75
X5.3Y-3.85
X5.3Y-3.95
X5.3Y-4.05
X5.3Y-4.15
X5.3Y-4.25
X5.3Y-4.35
X5.3Y-4.45
X4.6Y-3.3
X4.6Y-3.4
X4.6Y-3.5
X5.55Y-3.15
X5.65Y-3.15
X5.75Y-3.15
X5.85Y-3.15
X5.95Y-3.15
X6.05Y-3.15
X6.15Y-3.15
X6.25Y-3.15
X6.35Y-3.15
T3
X4.6917Y-2.7209
X4.6917Y-2.8209
X4.7917Y-2.7209
X4.7917Y-2.8209
X4.8917Y-2.7209
X4.8917Y-2.8209
X4.9917Y-2.7209
X4.9917Y-2.8209
X5.0917Y-2.7209
X5.0917Y-2.8209
X5.1917Y-2.7209
X5.1917Y-2.8209
X5.2917Y-2.7209
X5.2917Y-2.8209
X5.3917Y-2.7209
X5.3917Y-2.8209
X5.4917Y-2.7209
X5.4917Y-2.8209
X5.5917Y-2.7209
X5.5917Y-2.8209
X5.6917Y-2.7209
X5.6917Y-2.8209
X5.7917Y-2.7209
X5.7917Y-2.8209
X5.8917Y-2.7209
X5.8917Y-2.8209
X5.9917Y-2.7209
X5.9917Y-2.8209
X6.0917Y-2.7209
X6.0917Y-2.8209
X6.1917Y-2.7209
X6.1917Y-2.8209
X6.2917Y-2.7209
X6.2917Y-2.8209
X6.3917Y-2.7209
X6.3917Y-2.8209
X6.4917Y-2.7209
X6.4917Y-2.8209
X6.5917Y-2.7209
X6.5917Y-2.8209
T4
X4.65Y-3.75
X4.65Y-3.85
X4.65Y-3.95
X4.65Y-4.05
X4.65Y-4.15
X4.65Y-4.25
X4.65Y-4.35
X4.65Y-4.45
T5
X4.5Y-2.7709
X4.5Y-4.7
X6.7835Y-2.7709
X6.7835Y-4.7
T0
M30
