G04 #@! TF.FileFunction,Legend,Top*
%FSLAX46Y46*%
G04 Gerber Fmt 4.6, Leading zero omitted, Abs format (unit mm)*
G04 Created by KiCad (PCBNEW 4.0.5-e0-6337~49~ubuntu16.04.1) date Sun Mar  5 09:11:21 2017*
%MOMM*%
%LPD*%
G01*
G04 APERTURE LIST*
%ADD10C,0.100000*%
%ADD11C,0.150000*%
%ADD12C,0.120000*%
G04 APERTURE END LIST*
D10*
D11*
X110800000Y-122880000D02*
X110800000Y-66880000D01*
X110800000Y-66880000D02*
X175800000Y-66880000D01*
X175800000Y-66880000D02*
X175800000Y-122880000D01*
X175800000Y-122880000D02*
X110800000Y-122880000D01*
X168700000Y-67840000D02*
X117900000Y-67840000D01*
X120440000Y-72920000D02*
X168700000Y-72920000D01*
X168700000Y-67840000D02*
X168700000Y-72920000D01*
X117900000Y-67840000D02*
X117900000Y-70380000D01*
X117620000Y-71650000D02*
X117620000Y-73200000D01*
X117900000Y-70380000D02*
X120440000Y-70380000D01*
X120440000Y-70380000D02*
X120440000Y-72920000D01*
X117620000Y-73200000D02*
X119170000Y-73200000D01*
X116304060Y-81532730D02*
X116304060Y-78492350D01*
X116840000Y-82550000D02*
X116840000Y-77470000D01*
X111760000Y-82550000D02*
X111760000Y-77470000D01*
X116840000Y-81534000D02*
X116332000Y-81534000D01*
X116332000Y-78486000D02*
X116840000Y-78486000D01*
X111760000Y-77470000D02*
X116840000Y-77470000D01*
X116840000Y-82550000D02*
X111760000Y-82550000D01*
X138176000Y-82550000D02*
X138176000Y-82042000D01*
X138176000Y-82042000D02*
X143764000Y-82042000D01*
X143764000Y-82042000D02*
X143764000Y-82550000D01*
X137160000Y-77470000D02*
X144780000Y-77470000D01*
X144780000Y-77470000D02*
X144780000Y-82550000D01*
X144780000Y-82550000D02*
X137160000Y-82550000D01*
X137160000Y-82550000D02*
X137160000Y-77470000D01*
D12*
X131100000Y-84490000D02*
X130770000Y-84490000D01*
X130770000Y-84490000D02*
X130770000Y-78070000D01*
X130770000Y-78070000D02*
X131100000Y-78070000D01*
X133060000Y-84490000D02*
X133390000Y-84490000D01*
X133390000Y-84490000D02*
X133390000Y-78070000D01*
X133390000Y-78070000D02*
X133060000Y-78070000D01*
D11*
X137160000Y-121920000D02*
X137160000Y-88900000D01*
X137160000Y-88900000D02*
X111760000Y-88900000D01*
X111760000Y-88900000D02*
X111760000Y-121920000D01*
X111760000Y-121920000D02*
X137160000Y-121920000D01*
X161480000Y-110490000D02*
X140780000Y-110490000D01*
X140780000Y-111100000D02*
X140780000Y-104800000D01*
X161480000Y-111100000D02*
X161480000Y-104800000D01*
X161480000Y-111100000D02*
X140780000Y-111100000D01*
X161480000Y-104800000D02*
X140780000Y-104800000D01*
X119622381Y-75309095D02*
X118622381Y-75309095D01*
X118622381Y-74928142D01*
X118670000Y-74832904D01*
X118717619Y-74785285D01*
X118812857Y-74737666D01*
X118955714Y-74737666D01*
X119050952Y-74785285D01*
X119098571Y-74832904D01*
X119146190Y-74928142D01*
X119146190Y-75309095D01*
X118717619Y-74356714D02*
X118670000Y-74309095D01*
X118622381Y-74213857D01*
X118622381Y-73975761D01*
X118670000Y-73880523D01*
X118717619Y-73832904D01*
X118812857Y-73785285D01*
X118908095Y-73785285D01*
X119050952Y-73832904D01*
X119622381Y-74404333D01*
X119622381Y-73785285D01*
X150035714Y-120632381D02*
X150035714Y-121346667D01*
X149988094Y-121489524D01*
X149892856Y-121584762D01*
X149749999Y-121632381D01*
X149654761Y-121632381D01*
X150654761Y-121632381D02*
X150559523Y-121584762D01*
X150511904Y-121537143D01*
X150464285Y-121441905D01*
X150464285Y-121156190D01*
X150511904Y-121060952D01*
X150559523Y-121013333D01*
X150654761Y-120965714D01*
X150797619Y-120965714D01*
X150892857Y-121013333D01*
X150940476Y-121060952D01*
X150988095Y-121156190D01*
X150988095Y-121441905D01*
X150940476Y-121537143D01*
X150892857Y-121584762D01*
X150797619Y-121632381D01*
X150654761Y-121632381D01*
X151845238Y-120965714D02*
X151845238Y-121632381D01*
X151416666Y-120965714D02*
X151416666Y-121489524D01*
X151464285Y-121584762D01*
X151559523Y-121632381D01*
X151702381Y-121632381D01*
X151797619Y-121584762D01*
X151845238Y-121537143D01*
X152321428Y-121632381D02*
X152321428Y-120632381D01*
X152416666Y-121251429D02*
X152702381Y-121632381D01*
X152702381Y-120965714D02*
X152321428Y-121346667D01*
X153511905Y-121584762D02*
X153416667Y-121632381D01*
X153226190Y-121632381D01*
X153130952Y-121584762D01*
X153083333Y-121489524D01*
X153083333Y-121108571D01*
X153130952Y-121013333D01*
X153226190Y-120965714D01*
X153416667Y-120965714D01*
X153511905Y-121013333D01*
X153559524Y-121108571D01*
X153559524Y-121203810D01*
X153083333Y-121299048D01*
X154750000Y-121632381D02*
X154750000Y-120632381D01*
X154750000Y-121108571D02*
X155321429Y-121108571D01*
X155321429Y-121632381D02*
X155321429Y-120632381D01*
X155797619Y-121632381D02*
X155797619Y-120965714D01*
X155797619Y-120632381D02*
X155750000Y-120680000D01*
X155797619Y-120727619D01*
X155845238Y-120680000D01*
X155797619Y-120632381D01*
X155797619Y-120727619D01*
X156273809Y-120965714D02*
X156273809Y-121822857D01*
X156226190Y-121918095D01*
X156130952Y-121965714D01*
X156083333Y-121965714D01*
X156273809Y-120632381D02*
X156226190Y-120680000D01*
X156273809Y-120727619D01*
X156321428Y-120680000D01*
X156273809Y-120632381D01*
X156273809Y-120727619D01*
X156892856Y-121632381D02*
X156797618Y-121584762D01*
X156749999Y-121489524D01*
X156749999Y-120632381D01*
X157273809Y-121632381D02*
X157273809Y-120632381D01*
X157369047Y-121251429D02*
X157654762Y-121632381D01*
X157654762Y-120965714D02*
X157273809Y-121346667D01*
X158464286Y-121584762D02*
X158369048Y-121632381D01*
X158178571Y-121632381D01*
X158083333Y-121584762D01*
X158035714Y-121489524D01*
X158035714Y-121108571D01*
X158083333Y-121013333D01*
X158178571Y-120965714D01*
X158369048Y-120965714D01*
X158464286Y-121013333D01*
X158511905Y-121108571D01*
X158511905Y-121203810D01*
X158035714Y-121299048D01*
X158940476Y-121632381D02*
X158940476Y-120965714D01*
X158940476Y-121060952D02*
X158988095Y-121013333D01*
X159083333Y-120965714D01*
X159226191Y-120965714D01*
X159321429Y-121013333D01*
X159369048Y-121108571D01*
X159369048Y-121632381D01*
X159369048Y-121108571D02*
X159416667Y-121013333D01*
X159511905Y-120965714D01*
X159654762Y-120965714D01*
X159750000Y-121013333D01*
X159797619Y-121108571D01*
X159797619Y-121632381D01*
X160702381Y-121632381D02*
X160702381Y-121108571D01*
X160654762Y-121013333D01*
X160559524Y-120965714D01*
X160369047Y-120965714D01*
X160273809Y-121013333D01*
X160702381Y-121584762D02*
X160607143Y-121632381D01*
X160369047Y-121632381D01*
X160273809Y-121584762D01*
X160226190Y-121489524D01*
X160226190Y-121394286D01*
X160273809Y-121299048D01*
X160369047Y-121251429D01*
X160607143Y-121251429D01*
X160702381Y-121203810D01*
X162750000Y-120870476D02*
X162654762Y-120822857D01*
X162464286Y-120822857D01*
X162369048Y-120870476D01*
X162273810Y-120965714D01*
X162226191Y-121060952D01*
X162226191Y-121251429D01*
X162273810Y-121346667D01*
X162369048Y-121441905D01*
X162464286Y-121489524D01*
X162654762Y-121489524D01*
X162750000Y-121441905D01*
X162559524Y-120489524D02*
X162321429Y-120537143D01*
X162083333Y-120680000D01*
X161940476Y-120918095D01*
X161892857Y-121156190D01*
X161940476Y-121394286D01*
X162083333Y-121632381D01*
X162321429Y-121775238D01*
X162559524Y-121822857D01*
X162797619Y-121775238D01*
X163035714Y-121632381D01*
X163178571Y-121394286D01*
X163226191Y-121156190D01*
X163178571Y-120918095D01*
X163035714Y-120680000D01*
X162797619Y-120537143D01*
X162559524Y-120489524D01*
X164369048Y-120727619D02*
X164416667Y-120680000D01*
X164511905Y-120632381D01*
X164750001Y-120632381D01*
X164845239Y-120680000D01*
X164892858Y-120727619D01*
X164940477Y-120822857D01*
X164940477Y-120918095D01*
X164892858Y-121060952D01*
X164321429Y-121632381D01*
X164940477Y-121632381D01*
X165559524Y-120632381D02*
X165654763Y-120632381D01*
X165750001Y-120680000D01*
X165797620Y-120727619D01*
X165845239Y-120822857D01*
X165892858Y-121013333D01*
X165892858Y-121251429D01*
X165845239Y-121441905D01*
X165797620Y-121537143D01*
X165750001Y-121584762D01*
X165654763Y-121632381D01*
X165559524Y-121632381D01*
X165464286Y-121584762D01*
X165416667Y-121537143D01*
X165369048Y-121441905D01*
X165321429Y-121251429D01*
X165321429Y-121013333D01*
X165369048Y-120822857D01*
X165416667Y-120727619D01*
X165464286Y-120680000D01*
X165559524Y-120632381D01*
X166845239Y-121632381D02*
X166273810Y-121632381D01*
X166559524Y-121632381D02*
X166559524Y-120632381D01*
X166464286Y-120775238D01*
X166369048Y-120870476D01*
X166273810Y-120918095D01*
X167178572Y-120632381D02*
X167845239Y-120632381D01*
X167416667Y-121632381D01*
X116022381Y-82462381D02*
X115022381Y-82462381D01*
X115022381Y-82081428D01*
X115070000Y-81986190D01*
X115117619Y-81938571D01*
X115212857Y-81890952D01*
X115355714Y-81890952D01*
X115450952Y-81938571D01*
X115498571Y-81986190D01*
X115546190Y-82081428D01*
X115546190Y-82462381D01*
X116022381Y-81319524D02*
X115974762Y-81414762D01*
X115927143Y-81462381D01*
X115831905Y-81510000D01*
X115546190Y-81510000D01*
X115450952Y-81462381D01*
X115403333Y-81414762D01*
X115355714Y-81319524D01*
X115355714Y-81176666D01*
X115403333Y-81081428D01*
X115450952Y-81033809D01*
X115546190Y-80986190D01*
X115831905Y-80986190D01*
X115927143Y-81033809D01*
X115974762Y-81081428D01*
X116022381Y-81176666D01*
X116022381Y-81319524D01*
X115355714Y-80652857D02*
X116022381Y-80462381D01*
X115546190Y-80271904D01*
X116022381Y-80081428D01*
X115355714Y-79890952D01*
X115974762Y-79129047D02*
X116022381Y-79224285D01*
X116022381Y-79414762D01*
X115974762Y-79510000D01*
X115879524Y-79557619D01*
X115498571Y-79557619D01*
X115403333Y-79510000D01*
X115355714Y-79414762D01*
X115355714Y-79224285D01*
X115403333Y-79129047D01*
X115498571Y-79081428D01*
X115593810Y-79081428D01*
X115689048Y-79557619D01*
X116022381Y-78652857D02*
X115355714Y-78652857D01*
X115546190Y-78652857D02*
X115450952Y-78605238D01*
X115403333Y-78557619D01*
X115355714Y-78462381D01*
X115355714Y-78367142D01*
X116022381Y-77509999D02*
X116022381Y-78081428D01*
X116022381Y-77795714D02*
X115022381Y-77795714D01*
X115165238Y-77890952D01*
X115260476Y-77986190D01*
X115308095Y-78081428D01*
X140231905Y-82232381D02*
X140231905Y-81232381D01*
X140612858Y-81232381D01*
X140708096Y-81280000D01*
X140755715Y-81327619D01*
X140803334Y-81422857D01*
X140803334Y-81565714D01*
X140755715Y-81660952D01*
X140708096Y-81708571D01*
X140612858Y-81756190D01*
X140231905Y-81756190D01*
X141755715Y-82232381D02*
X141184286Y-82232381D01*
X141470000Y-82232381D02*
X141470000Y-81232381D01*
X141374762Y-81375238D01*
X141279524Y-81470476D01*
X141184286Y-81518095D01*
X130222381Y-81446666D02*
X129746190Y-81780000D01*
X130222381Y-82018095D02*
X129222381Y-82018095D01*
X129222381Y-81637142D01*
X129270000Y-81541904D01*
X129317619Y-81494285D01*
X129412857Y-81446666D01*
X129555714Y-81446666D01*
X129650952Y-81494285D01*
X129698571Y-81541904D01*
X129746190Y-81637142D01*
X129746190Y-82018095D01*
X130222381Y-80494285D02*
X130222381Y-81065714D01*
X130222381Y-80780000D02*
X129222381Y-80780000D01*
X129365238Y-80875238D01*
X129460476Y-80970476D01*
X129508095Y-81065714D01*
X122642381Y-108711905D02*
X123451905Y-108711905D01*
X123547143Y-108664286D01*
X123594762Y-108616667D01*
X123642381Y-108521429D01*
X123642381Y-108330952D01*
X123594762Y-108235714D01*
X123547143Y-108188095D01*
X123451905Y-108140476D01*
X122642381Y-108140476D01*
X123642381Y-107140476D02*
X123642381Y-107711905D01*
X123642381Y-107426191D02*
X122642381Y-107426191D01*
X122785238Y-107521429D01*
X122880476Y-107616667D01*
X122928095Y-107711905D01*
X150363965Y-106395781D02*
X150363965Y-105395781D01*
X150744918Y-105395781D01*
X150840156Y-105443400D01*
X150887775Y-105491019D01*
X150935394Y-105586257D01*
X150935394Y-105729114D01*
X150887775Y-105824352D01*
X150840156Y-105871971D01*
X150744918Y-105919590D01*
X150363965Y-105919590D01*
X151268727Y-105395781D02*
X151887775Y-105395781D01*
X151554441Y-105776733D01*
X151697299Y-105776733D01*
X151792537Y-105824352D01*
X151840156Y-105871971D01*
X151887775Y-105967210D01*
X151887775Y-106205305D01*
X151840156Y-106300543D01*
X151792537Y-106348162D01*
X151697299Y-106395781D01*
X151411584Y-106395781D01*
X151316346Y-106348162D01*
X151268727Y-106300543D01*
M02*
