G04 #@! TF.FileFunction,Copper,L2,Bot,Signal*
%FSLAX46Y46*%
G04 Gerber Fmt 4.6, Leading zero omitted, Abs format (unit mm)*
G04 Created by KiCad (PCBNEW 4.0.5-e0-6337~49~ubuntu16.04.1) date Sun Mar  5 09:11:21 2017*
%MOMM*%
%LPD*%
G01*
G04 APERTURE LIST*
%ADD10C,0.100000*%
%ADD11R,1.727200X1.727200*%
%ADD12O,1.727200X1.727200*%
%ADD13C,6.000000*%
%ADD14C,1.700000*%
%ADD15C,1.600000*%
%ADD16O,1.600000X1.600000*%
%ADD17C,1.524000*%
%ADD18C,4.000000*%
%ADD19C,0.250000*%
G04 APERTURE END LIST*
D10*
D11*
X119170000Y-71650000D03*
D12*
X119170000Y-69110000D03*
X121710000Y-71650000D03*
X121710000Y-69110000D03*
X124250000Y-71650000D03*
X124250000Y-69110000D03*
X126790000Y-71650000D03*
X126790000Y-69110000D03*
X129330000Y-71650000D03*
X129330000Y-69110000D03*
X131870000Y-71650000D03*
X131870000Y-69110000D03*
X134410000Y-71650000D03*
X134410000Y-69110000D03*
X136950000Y-71650000D03*
X136950000Y-69110000D03*
X139490000Y-71650000D03*
X139490000Y-69110000D03*
X142030000Y-71650000D03*
X142030000Y-69110000D03*
X144570000Y-71650000D03*
X144570000Y-69110000D03*
X147110000Y-71650000D03*
X147110000Y-69110000D03*
X149650000Y-71650000D03*
X149650000Y-69110000D03*
X152190000Y-71650000D03*
X152190000Y-69110000D03*
X154730000Y-71650000D03*
X154730000Y-69110000D03*
X157270000Y-71650000D03*
X157270000Y-69110000D03*
X159810000Y-71650000D03*
X159810000Y-69110000D03*
X162350000Y-71650000D03*
X162350000Y-69110000D03*
X164890000Y-71650000D03*
X164890000Y-69110000D03*
X167430000Y-71650000D03*
X167430000Y-69110000D03*
D13*
X114300000Y-70380000D03*
X172300000Y-70380000D03*
X114300000Y-119380000D03*
X172300000Y-119380000D03*
D14*
X114300000Y-81280000D03*
X114300000Y-78740000D03*
X138430000Y-80010000D03*
X140970000Y-80010000D03*
X143510000Y-80010000D03*
D15*
X132080000Y-85090000D03*
D16*
X132080000Y-77470000D03*
D17*
X124460000Y-90170000D03*
X127000000Y-90170000D03*
X129540000Y-90170000D03*
X132080000Y-90170000D03*
X121920000Y-90170000D03*
X119380000Y-90170000D03*
X116840000Y-90170000D03*
X114300000Y-90170000D03*
X134620000Y-90170000D03*
D18*
X134620000Y-119380000D03*
D17*
X152400000Y-107950000D03*
X149860000Y-107950000D03*
X147320000Y-107950000D03*
X154940000Y-107950000D03*
X157480000Y-107950000D03*
X160020000Y-107950000D03*
X144780000Y-107950000D03*
X142240000Y-107950000D03*
D19*
X116840000Y-81280000D02*
X116840000Y-90170000D01*
X114300000Y-78740000D02*
X116840000Y-81280000D01*
X117981000Y-75058900D02*
X114300000Y-78740000D01*
X117981000Y-70596100D02*
X117981000Y-75058900D01*
X118278000Y-70298900D02*
X117981000Y-70596100D01*
X119170000Y-70298900D02*
X118278000Y-70298900D01*
X119170000Y-69110000D02*
X119170000Y-70298900D01*
X140970000Y-104140000D02*
X140970000Y-80010000D01*
X144780000Y-107950000D02*
X140970000Y-104140000D01*
X130600000Y-83610000D02*
X132080000Y-85090000D01*
X130600000Y-68671800D02*
X130600000Y-83610000D01*
X129849000Y-67921100D02*
X130600000Y-68671800D01*
X126251000Y-67921100D02*
X129849000Y-67921100D01*
X125487000Y-68685300D02*
X126251000Y-67921100D01*
X125487000Y-69593000D02*
X125487000Y-68685300D01*
X124619000Y-70461100D02*
X125487000Y-69593000D01*
X121176000Y-70461100D02*
X124619000Y-70461100D01*
X120359000Y-71278400D02*
X121176000Y-70461100D01*
X120359000Y-71650000D02*
X120359000Y-71278400D01*
X119170000Y-71650000D02*
X120359000Y-71650000D01*
X139190200Y-104900200D02*
X142240000Y-107950000D01*
X139190200Y-92200200D02*
X139190200Y-104900200D01*
X132080000Y-85090000D02*
X139190200Y-92200200D01*
X121920000Y-89640000D02*
X121920000Y-90170000D01*
X125601000Y-85958900D02*
X121920000Y-89640000D01*
X125601000Y-71116200D02*
X125601000Y-85958900D01*
X126418000Y-70298900D02*
X125601000Y-71116200D01*
X126790000Y-70298900D02*
X126418000Y-70298900D01*
X126790000Y-69110000D02*
X126790000Y-70298900D01*
X124460000Y-89640000D02*
X124460000Y-90170000D01*
X128141000Y-85958900D02*
X124460000Y-89640000D01*
X128141000Y-71116200D02*
X128141000Y-85958900D01*
X128958000Y-70298900D02*
X128141000Y-71116200D01*
X129330000Y-70298900D02*
X128958000Y-70298900D01*
X129330000Y-69110000D02*
X129330000Y-70298900D01*
X149860000Y-77708900D02*
X154730000Y-72838900D01*
X149860000Y-107950000D02*
X149860000Y-77708900D01*
X154730000Y-71650000D02*
X154730000Y-72838900D01*
X152400000Y-77708900D02*
X157270000Y-72838900D01*
X152400000Y-107950000D02*
X152400000Y-77708900D01*
X157270000Y-71650000D02*
X157270000Y-72838900D01*
X159810000Y-71650000D02*
X159810000Y-72838900D01*
X154940000Y-77708900D02*
X159810000Y-72838900D01*
X154940000Y-107950000D02*
X154940000Y-77708900D01*
X162350000Y-71650000D02*
X162350000Y-72838900D01*
X157480000Y-77708900D02*
X162350000Y-72838900D01*
X157480000Y-107950000D02*
X157480000Y-77708900D01*
X164890000Y-71650000D02*
X164890000Y-72838900D01*
X160020000Y-77708900D02*
X164890000Y-72838900D01*
X160020000Y-107950000D02*
X160020000Y-77708900D01*
M02*
